<svg width="41" height="51" viewBox="0 0 41 51" fill="none" xmlns="http://www.w3.org/2000/svg">
<path d="M33.9766 27.0577C34.0266 23.162 36.0682 19.5641 39.3869 17.5246C37.2848 14.5205 33.887 12.6851 30.2225 12.5705C26.3663 12.1664 22.6289 14.8767 20.6643 14.8767C18.6623 14.8767 15.6373 12.6101 12.379 12.6768C8.09371 12.8163 4.19379 15.1934 2.10841 18.9412C-2.33109 26.6286 0.979264 37.9284 5.23335 44.1428C7.36248 47.1865 9.84785 50.5844 13.104 50.4656C16.2894 50.3344 17.479 48.4344 21.3226 48.4344C25.1309 48.4344 26.2475 50.4656 29.5683 50.3885C32.9849 50.3323 35.139 47.3324 37.1932 44.2595C38.7223 42.0908 39.8994 39.695 40.6785 37.1596C36.6203 35.443 33.9807 31.466 33.9766 27.0577Z" fill="#064F60"/>
<path d="M27.7038 8.01443C29.5663 5.77697 30.485 2.90203 30.2621 0C27.4163 0.299994 24.7851 1.66039 22.8976 3.81034C21.0331 5.93322 20.0873 8.70817 20.2706 11.5289C23.156 11.5581 25.8955 10.2623 27.7038 8.01443Z" fill="#064F60"/>
</svg>
