<svg width="49" height="50" viewBox="0 0 49 50" fill="none" xmlns="http://www.w3.org/2000/svg">
<path d="M25.3563 29.7188V22.8875H48.375C48.6 24.0771 48.7167 25.4854 48.7167 27.0104C48.7167 32.1354 47.3167 38.4729 42.8 42.9875C38.4083 47.5604 32.7979 50 25.3646 50C11.5854 50 0 38.7771 0 25C0 11.2229 11.5854 0 25.3646 0C32.9875 0 38.4167 2.99167 42.4958 6.88958L37.675 11.7083C34.75 8.96458 30.7854 6.83125 25.3563 6.83125C15.2958 6.83125 7.42708 14.9396 7.42708 25C7.42708 35.0604 15.2958 43.1688 25.3563 43.1688C31.8813 43.1688 35.5979 40.5479 37.9792 38.1667C39.9104 36.2354 41.1812 33.4771 41.6812 29.7104L25.3563 29.7188Z" fill="#064F60"/>
</svg>
