<svg width="24" height="24" viewBox="0 0 24 24" fill="none" xmlns="http://www.w3.org/2000/svg">
<path fill-rule="evenodd" clip-rule="evenodd" d="M0 3C0 1.34315 1.34315 0 3 0H7.90909C9.56594 0 10.9091 1.34315 10.9091 3V7.90909C10.9091 9.56594 9.56594 10.9091 7.90909 10.9091H3C1.34315 10.9091 0 9.56594 0 7.90909V3ZM0 16.0909C0 14.4341 1.34315 13.0909 3 13.0909H7.90909C9.56594 13.0909 10.9091 14.4341 10.9091 16.0909V21C10.9091 22.6569 9.56594 24 7.90909 24H3C1.34315 24 0 22.6569 0 21V16.0909ZM16.0909 0C14.4341 0 13.0909 1.34315 13.0909 3V7.90909C13.0909 9.56594 14.4341 10.9091 16.0909 10.9091H21C22.6569 10.9091 24 9.56594 24 7.90909V3C24 1.34315 22.6569 0 21 0H16.0909ZM24 14H13V13H24V14ZM13 17H24V16H13V17ZM24 21H13V20H24V21ZM13 24H24V23H13V24Z" fill="#064F60"/>
</svg>
