<svg width="26" height="26" viewBox="0 0 26 26" fill="none" xmlns="http://www.w3.org/2000/svg">
<g clip-path="url(#clip0_283_932)">
<path d="M20.5833 9.126V7.58333C20.5833 5.57211 19.7844 3.64326 18.3622 2.22111C16.9401 0.798956 15.0112 0 13 0C10.9888 0 9.05993 0.798956 7.63778 2.22111C6.21563 3.64326 5.41667 5.57211 5.41667 7.58333V9.126C4.45181 9.5471 3.63057 10.2402 3.05338 11.1206C2.47619 12.0011 2.16806 13.0306 2.16667 14.0833V20.5833C2.16839 22.0194 2.73963 23.3961 3.75508 24.4116C4.77053 25.427 6.14728 25.9983 7.58334 26H18.4167C19.8527 25.9983 21.2295 25.427 22.2449 24.4116C23.2604 23.3961 23.8316 22.0194 23.8333 20.5833V14.0833C23.832 13.0306 23.5238 12.0011 22.9466 11.1206C22.3694 10.2402 21.5482 9.5471 20.5833 9.126ZM7.58334 7.58333C7.58334 6.14674 8.15402 4.76899 9.16984 3.75317C10.1857 2.73735 11.5634 2.16667 13 2.16667C14.4366 2.16667 15.8143 2.73735 16.8302 3.75317C17.846 4.76899 18.4167 6.14674 18.4167 7.58333V8.66667H7.58334V7.58333ZM21.6667 20.5833C21.6667 21.4453 21.3243 22.2719 20.7148 22.8814C20.1053 23.4909 19.2786 23.8333 18.4167 23.8333H7.58334C6.72138 23.8333 5.89473 23.4909 5.28524 22.8814C4.67575 22.2719 4.33334 21.4453 4.33334 20.5833V14.0833C4.33334 13.2214 4.67575 12.3947 5.28524 11.7852C5.89473 11.1757 6.72138 10.8333 7.58334 10.8333H18.4167C19.2786 10.8333 20.1053 11.1757 20.7148 11.7852C21.3243 12.3947 21.6667 13.2214 21.6667 14.0833V20.5833Z" fill="#064F60"/>
<path d="M13 15.1665C12.7127 15.1665 12.4371 15.2806 12.234 15.4838C12.0308 15.687 11.9167 15.9625 11.9167 16.2498V18.4165C11.9167 18.7038 12.0308 18.9794 12.234 19.1825C12.4371 19.3857 12.7127 19.4998 13 19.4998C13.2873 19.4998 13.5629 19.3857 13.766 19.1825C13.9692 18.9794 14.0833 18.7038 14.0833 18.4165V16.2498C14.0833 15.9625 13.9692 15.687 13.766 15.4838C13.5629 15.2806 13.2873 15.1665 13 15.1665Z" fill="#064F60"/>
</g>
<defs>
<clipPath id="clip0_283_932">
<rect width="26" height="26" fill="white"/>
</clipPath>
</defs>
</svg>
