<svg width="26" height="26" viewBox="0 0 26 26" fill="none" xmlns="http://www.w3.org/2000/svg">
<g clip-path="url(#clip0_283_450)">
<path d="M13 16.25C14.7949 16.25 16.25 14.7949 16.25 13C16.25 11.2051 14.7949 9.75 13 9.75C11.2051 9.75 9.75 11.2051 9.75 13C9.75 14.7949 11.2051 16.25 13 16.25Z" stroke="#064F60" stroke-width="2" stroke-linecap="round" stroke-linejoin="round"/>
<path d="M21.0167 16.2502C20.8725 16.5769 20.8294 16.9394 20.8932 17.2908C20.9569 17.6422 21.1244 17.9665 21.3742 18.2218L21.4392 18.2868C21.6406 18.4881 21.8004 18.727 21.9095 18.99C22.0185 19.2531 22.0746 19.535 22.0746 19.8197C22.0746 20.1045 22.0185 20.3864 21.9095 20.6495C21.8004 20.9125 21.6406 21.1514 21.4392 21.3527C21.2379 21.5541 20.999 21.7139 20.7359 21.823C20.4729 21.932 20.191 21.9881 19.9062 21.9881C19.6215 21.9881 19.3396 21.932 19.0765 21.823C18.8135 21.7139 18.5746 21.5541 18.3733 21.3527L18.3083 21.2877C18.053 21.0379 17.7287 20.8704 17.3773 20.8067C17.0259 20.7429 16.6634 20.786 16.3367 20.9302C16.0162 21.0675 15.743 21.2955 15.5505 21.5862C15.358 21.8768 15.2547 22.2174 15.2533 22.566V22.7502C15.2533 23.3248 15.0251 23.8759 14.6187 24.2822C14.2124 24.6886 13.6613 24.9168 13.0867 24.9168C12.512 24.9168 11.9609 24.6886 11.5546 24.2822C11.1483 23.8759 10.92 23.3248 10.92 22.7502V22.6527C10.9116 22.2941 10.7955 21.9463 10.5869 21.6546C10.3782 21.3629 10.0866 21.1406 9.75 21.0168C9.42324 20.8726 9.06079 20.8296 8.70936 20.8933C8.35793 20.957 8.03365 21.1246 7.77833 21.3743L7.71333 21.4393C7.5121 21.6408 7.27314 21.8006 7.01012 21.9096C6.74709 22.0187 6.46515 22.0748 6.18041 22.0748C5.89568 22.0748 5.61374 22.0187 5.35071 21.9096C5.08768 21.8006 4.84872 21.6408 4.6475 21.4393C4.44605 21.2381 4.28623 20.9991 4.1772 20.7361C4.06816 20.4731 4.01204 20.1911 4.01204 19.9064C4.01204 19.6217 4.06816 19.3397 4.1772 19.0767C4.28623 18.8137 4.44605 18.5747 4.6475 18.3735L4.71249 18.3085C4.96224 18.0532 5.12978 17.7289 5.1935 17.3775C5.25722 17.026 5.2142 16.6636 5.06999 16.3368C4.93267 16.0164 4.70465 15.7431 4.414 15.5507C4.12335 15.3582 3.78276 15.2549 3.43416 15.2535H3.24999C2.67536 15.2535 2.12426 15.0252 1.71793 14.6189C1.3116 14.2126 1.08333 13.6615 1.08333 13.0868C1.08333 12.5122 1.3116 11.9611 1.71793 11.5548C2.12426 11.1484 2.67536 10.9202 3.24999 10.9202H3.34749C3.70607 10.9118 4.05383 10.7957 4.34557 10.587C4.6373 10.3784 4.85952 10.0868 4.98333 9.75016C5.12754 9.42341 5.17055 9.06095 5.10683 8.70953C5.04311 8.3581 4.87558 8.03382 4.62583 7.7785L4.56083 7.7135C4.35938 7.51227 4.19957 7.27331 4.09053 7.01028C3.9815 6.74725 3.92537 6.46531 3.92537 6.18058C3.92537 5.89585 3.9815 5.6139 4.09053 5.35088C4.19957 5.08785 4.35938 4.84889 4.56083 4.64766C4.76205 4.44621 5.00101 4.2864 5.26404 4.17737C5.52707 4.06833 5.80901 4.01221 6.09375 4.01221C6.37848 4.01221 6.66042 4.06833 6.92345 4.17737C7.18648 4.2864 7.42544 4.44621 7.62666 4.64766L7.69166 4.71266C7.94698 4.96241 8.27126 5.12995 8.62269 5.19367C8.97412 5.25739 9.33658 5.21437 9.66333 5.07016H9.75C10.0704 4.93284 10.3437 4.70481 10.5362 4.41417C10.7286 4.12352 10.8319 3.78293 10.8333 3.43433V3.25016C10.8333 2.67553 11.0616 2.12443 11.4679 1.7181C11.8743 1.31177 12.4254 1.0835 13 1.0835C13.5746 1.0835 14.1257 1.31177 14.5321 1.7181C14.9384 2.12443 15.1667 2.67553 15.1667 3.25016V3.34766C15.1681 3.69626 15.2713 4.03685 15.4638 4.3275C15.6563 4.61815 15.9296 4.84617 16.25 4.9835C16.5767 5.1277 16.9392 5.17072 17.2906 5.107C17.6421 5.04328 17.9663 4.87574 18.2217 4.626L18.2867 4.561C18.4879 4.35955 18.7268 4.19974 18.9899 4.0907C19.2529 3.98166 19.5348 3.92554 19.8196 3.92554C20.1043 3.92554 20.3863 3.98166 20.6493 4.0907C20.9123 4.19974 21.1513 4.35955 21.3525 4.561C21.5539 4.76222 21.7138 5.00118 21.8228 5.26421C21.9318 5.52724 21.988 5.80918 21.988 6.09391C21.988 6.37865 21.9318 6.66059 21.8228 6.92362C21.7138 7.18665 21.5539 7.4256 21.3525 7.62683L21.2875 7.69183C21.0377 7.94715 20.8702 8.27143 20.8065 8.62286C20.7428 8.97429 20.7858 9.33675 20.93 9.6635V9.75016C21.0673 10.0706 21.2953 10.3438 21.586 10.5363C21.8766 10.7288 22.2172 10.8321 22.5658 10.8335H22.75C23.3246 10.8335 23.8757 11.0618 24.2821 11.4681C24.6884 11.8744 24.9167 12.4255 24.9167 13.0002C24.9167 13.5748 24.6884 14.1259 24.2821 14.5322C23.8757 14.9386 23.3246 15.1668 22.75 15.1668H22.6525C22.3039 15.1682 21.9633 15.2715 21.6727 15.464C21.382 15.6565 21.154 15.9297 21.0167 16.2502Z" stroke="#064F60" stroke-width="2" stroke-linecap="round" stroke-linejoin="round"/>
</g>
<defs>
<clipPath id="clip0_283_450">
<rect width="26" height="26" fill="white"/>
</clipPath>
</defs>
</svg>
