<svg width="26" height="26" viewBox="0 0 26 26" fill="none" xmlns="http://www.w3.org/2000/svg">
<g clip-path="url(#clip0_283_939)">
<path d="M22.75 25.9998H20.5833V20.5366C20.5825 19.6873 20.2447 18.873 19.6441 18.2724C19.0436 17.6718 18.2293 17.334 17.3799 17.3332H8.62008C7.77075 17.334 6.95645 17.6718 6.35588 18.2724C5.75531 18.873 5.41753 19.6873 5.41667 20.5366V25.9998H3.25V20.5366C3.25172 19.1129 3.81805 17.748 4.82476 16.7413C5.83147 15.7346 7.19638 15.1682 8.62008 15.1665H17.3799C18.8036 15.1682 20.1685 15.7346 21.1752 16.7413C22.182 17.748 22.7483 19.1129 22.75 20.5366V25.9998Z" fill="#064F60"/>
<path d="M13 13C11.7144 13 10.4577 12.6188 9.3888 11.9046C8.31988 11.1903 7.48676 10.1752 6.99479 8.98745C6.50282 7.79973 6.37409 6.49279 6.6249 5.23192C6.8757 3.97104 7.49477 2.81285 8.40381 1.90381C9.31285 0.994768 10.471 0.375703 11.7319 0.124899C12.9928 -0.125905 14.2997 0.00281636 15.4874 0.494786C16.6752 0.986756 17.6903 1.81988 18.4046 2.8888C19.1188 3.95772 19.5 5.21442 19.5 6.5C19.4983 8.22338 18.8129 9.87568 17.5943 11.0943C16.3757 12.3129 14.7234 12.9983 13 13ZM13 2.16667C12.143 2.16667 11.3051 2.42082 10.5925 2.89697C9.87992 3.37312 9.3245 4.0499 8.99652 4.84171C8.66855 5.63352 8.58273 6.50481 8.74993 7.34539C8.91714 8.18598 9.32985 8.95811 9.93587 9.56413C10.5419 10.1702 11.314 10.5829 12.1546 10.7501C12.9952 10.9173 13.8665 10.8315 14.6583 10.5035C15.4501 10.1755 16.1269 9.62009 16.603 8.90747C17.0792 8.19486 17.3333 7.35706 17.3333 6.5C17.3333 5.35073 16.8768 4.24853 16.0641 3.43587C15.2515 2.62322 14.1493 2.16667 13 2.16667Z" fill="#064F60"/>
</g>
<defs>
<clipPath id="clip0_283_939">
<rect width="26" height="26" fill="white"/>
</clipPath>
</defs>
</svg>
